<svg width="256" height="55" viewBox="0 0 256 55" fill="none" xmlns="http://www.w3.org/2000/svg">
<path d="M0.664062 27.6201C0.664062 12.7926 12.7092 0.773438 27.5686 0.773438C42.4283 0.773438 54.4736 12.7926 54.4736 27.6201C54.4736 42.4476 42.4283 54.4668 27.5686 54.4668C12.7132 54.4668 0.664062 42.4476 0.664062 27.6201Z" fill="#5F259F"/>
<path d="M39.746 20.5808C39.746 19.5415 38.8995 18.6966 37.8582 18.6966H34.2724L26.0037 9.17676C25.2364 8.29207 24.024 7.93892 22.903 8.27199L20.0328 9.12493C19.5955 9.2559 19.4604 9.81115 19.7903 10.1245L28.7944 18.6929H15.0359C14.6383 18.6929 14.3203 19.014 14.3203 19.4069V20.9577C14.3203 21.9971 15.1631 22.842 16.2086 22.842H18.3115V30.089C18.3115 35.5 21.2015 38.7285 26.0395 38.7285C27.5103 38.7285 28.7743 38.5582 30.2254 37.9909V42.8225C30.2254 44.1315 31.2909 45.1945 32.6027 45.1945H34.6898C35.1864 45.1945 35.5882 44.794 35.5882 44.2978V22.842H39.0385C39.4363 22.842 39.7541 22.5206 39.7541 22.128V20.5808H39.746ZM30.2174 33.4807C29.3709 33.8616 28.1383 34.0757 27.2279 34.0757C24.7634 34.0757 23.6662 32.8459 23.6662 30.093V22.846H30.2174V33.4807Z" fill="white"/>
<path d="M136.886 42.9595V33.2095C136.886 30.7539 135.92 29.6591 133.757 29.6591C132.839 29.6591 131.801 29.782 131.134 30.0122V44.3002C131.134 44.796 130.732 45.1969 130.235 45.1969H126.793C126.3 45.1969 125.894 44.796 125.894 44.3002V27.5687C125.894 26.9857 126.288 26.4819 126.757 26.3152C128.979 25.5257 131.32 25.0456 133.753 25.0456C139.168 25.0456 142.153 27.9456 142.153 33.2135V44.3042C142.153 44.8 141.751 45.2009 141.255 45.2009H139.124C137.888 45.1969 136.886 44.1933 136.886 42.9595ZM150.461 37.0769H150.342V37.1958L150.346 38.4573C150.346 40.2821 151.511 41.3291 153.542 41.3291C155.049 41.3291 156.48 40.9483 157.907 40.1628C157.991 40.1194 158.142 40.0559 158.384 40.0559C158.667 40.0559 158.897 40.2187 159.028 40.3733C159.163 40.528 159.553 40.98 159.553 40.98C159.926 41.4127 160.157 41.9679 160.137 42.5392C160.109 43.3126 159.692 43.9828 159.04 44.3279C157.351 45.2246 155.494 45.6609 153.363 45.6609C150.99 45.6609 148.959 45.0302 147.488 43.8321C145.906 42.5469 145.071 40.651 145.071 38.35V32.5269C145.071 27.8383 148.132 25.038 153.256 25.038C158.253 25.038 161.119 27.7672 161.119 32.5269L161.115 36.1805C161.115 36.6723 160.714 37.0728 160.217 37.0728H150.461V37.0769ZM150.342 33.7804H150.461H155.971H156.09V33.6615L156.094 32.281C156.094 30.4128 155.045 29.3377 153.22 29.3377C151.364 29.3377 150.342 30.3851 150.342 32.281L150.338 33.6615L150.342 33.7804ZM188.767 37.0769H188.648V37.1958L188.652 38.4573C188.652 40.2821 189.817 41.3291 191.852 41.3291C193.359 41.3291 194.79 40.9483 196.217 40.1628C196.301 40.1194 196.452 40.0559 196.694 40.0559C196.972 40.0559 197.203 40.2187 197.338 40.3733C197.473 40.528 197.863 40.98 197.863 40.98C198.236 41.4127 198.467 41.9679 198.447 42.5392C198.419 43.3126 198.002 43.9828 197.35 44.3279C195.664 45.2246 193.804 45.6609 191.673 45.6609C189.3 45.6609 187.269 45.0302 185.798 43.8321C184.216 42.5469 183.381 40.651 183.381 38.35V32.5269C183.381 27.8383 186.442 25.038 191.566 25.038C196.563 25.038 199.429 27.7672 199.429 32.5269L199.425 36.1805C199.425 36.6723 199.023 37.0728 198.527 37.0728H188.767V37.0769ZM188.648 33.7804H188.767H194.281H194.4V33.6615L194.404 32.281C194.404 30.4128 193.355 29.3377 191.53 29.3377C189.674 29.3377 188.652 30.3851 188.652 32.281L188.648 33.6615V33.7804ZM100.118 45.1969H102.249C102.746 45.1969 103.148 44.796 103.148 44.3002V33.1737C103.148 28.0806 100.424 25.042 95.8608 25.042C94.4855 25.042 93.0026 25.2799 92.124 25.6647V20.1706C92.124 18.9372 91.1224 17.9336 89.8821 17.9336H87.7869C87.2903 17.9336 86.8886 18.3341 86.8886 18.8299V44.3002C86.8886 44.796 87.2903 45.1969 87.7869 45.1969H91.2256C91.7226 45.1969 92.124 44.796 92.124 44.3002V30.1271C92.8395 29.8021 93.8893 29.6233 94.7161 29.6233C96.9025 29.6233 97.8804 30.7181 97.8804 33.1737V42.9595C97.8764 44.1933 98.882 45.1969 100.118 45.1969ZM122.829 32.6024V38.2074C122.829 42.8048 119.625 45.6609 114.465 45.6609C109.285 45.6609 106.066 42.8048 106.066 38.2074V32.6024C106.066 27.9375 109.285 25.042 114.465 25.042C119.625 25.042 122.829 27.9375 122.829 32.6024ZM117.526 32.6024C117.526 30.7342 116.413 29.6631 114.469 29.6631C112.525 29.6631 111.412 30.7342 111.412 32.6024V38.2074C111.412 40.06 112.497 41.0792 114.469 41.0792C116.441 41.0792 117.526 40.06 117.526 38.2074V32.6024ZM83.9746 30.0162C83.9669 34.8792 80.3294 38.1439 75.5592 38.1439C74.3547 38.1439 73.321 37.9732 72.3033 37.5767V44.3002C72.3033 44.796 71.902 45.1969 71.405 45.1969H67.8827C67.3857 45.1969 66.9844 44.796 66.9844 44.3002V20.4285C66.9844 19.766 67.4496 19.31 67.8827 19.163C70.1009 18.4097 72.4267 17.9493 74.7878 17.9493C80.1863 17.9493 83.971 21.2297 83.971 26.3072V30.0162H83.9746ZM78.5805 26.1882C78.5805 23.8243 76.9863 22.6222 74.6368 22.6222C73.3411 22.6222 72.3033 23.0348 72.3033 23.0348V32.9238C73.1382 33.3798 73.7224 33.5269 74.6725 33.5269C76.9903 33.5269 78.5805 32.2296 78.5805 29.9725V26.1882ZM181.194 30.0162C181.186 34.8792 177.549 38.1439 172.779 38.1439C171.574 38.1439 170.541 37.9732 169.523 37.5767V44.3002C169.523 44.796 169.121 45.1969 168.625 45.1969H165.102C164.605 45.1969 164.204 44.796 164.204 44.3002V20.4285C164.204 19.766 164.669 19.31 165.102 19.163C167.321 18.4097 169.646 17.9493 172.008 17.9493C177.406 17.9493 181.19 21.2297 181.19 26.3072V30.0162H181.194ZM175.8 26.1882C175.8 23.8243 174.206 22.6222 171.856 22.6222C170.56 22.6222 169.523 23.0348 169.523 23.0348V32.9238C170.358 33.3798 170.942 33.5269 171.892 33.5269C174.21 33.5269 175.8 32.2296 175.8 29.9725V26.1882Z" fill="#5F259F"/>
<path d="M238.903 17.875H206.039C209.545 22.4366 211.632 28.1369 211.632 34.3289C211.632 40.5208 209.545 46.2211 206.039 50.7827H238.903C248.01 50.7827 255.393 43.4168 255.393 34.3289C255.393 25.2409 248.01 17.875 238.903 17.875Z" fill="#5F259F"/>
<path d="M230.162 31.9311C230.162 35.3742 227.578 37.1673 224.299 37.1673H221.822V42.1298H218.328V26.7109H224.295C227.582 26.715 230.162 28.4683 230.162 31.9311ZM224.088 34.0017C225.464 34.0017 226.565 33.4108 226.565 31.9311C226.565 30.4952 225.464 29.9042 224.088 29.9042H221.822V34.0017H224.088Z" fill="#F4F3F4"/>
<path d="M238.267 33.2593H244.552V40.5224C244.552 41.0499 244.381 41.4505 243.853 41.7044C243.05 42.0615 242.032 42.3392 240.358 42.3392C235.214 42.3392 231.641 38.9792 231.641 34.4176C231.641 29.8756 235.091 26.5 240.064 26.5C241.988 26.5 243.387 26.8809 244.338 27.3011V30.7442C243.3 30.1099 241.817 29.7724 240.378 29.7724C237.882 29.7724 235.425 30.9982 235.425 34.4176C235.425 37.9242 238.009 39.15 240.696 39.15C240.887 39.15 241.078 39.1299 241.268 39.1299V36.2384H238.263V33.2593H238.267Z" fill="#F4F3F4"/>
</svg>
